<svg width="53" height="99" viewBox="0 0 53 99" fill="none" xmlns="http://www.w3.org/2000/svg">
<path d="M2.19498 2.50972L2.19766 2.50704C2.40957 2.2946 2.66131 2.12605 2.93846 2.01104C3.21561 1.89604 3.51273 1.83684 3.81279 1.83684C4.11285 1.83684 4.40997 1.89604 4.68712 2.01104C4.96427 2.12605 5.216 2.2946 5.42791 2.50704L5.42925 2.50838L50.8042 47.8834L50.8056 47.8847C51.018 48.0966 51.1866 48.3484 51.3016 48.6255C51.4166 48.9027 51.4758 49.1998 51.4758 49.4998C51.4758 49.7999 51.4166 50.097 51.3016 50.3742C51.1866 50.6513 51.018 50.9031 50.8056 51.115L50.8042 51.1163L5.42925 96.4913C5.00054 96.92 4.41908 97.1609 3.81279 97.1609C3.20649 97.1609 2.62503 96.92 2.19632 96.4913C1.76761 96.0626 1.52676 95.4811 1.52676 94.8749C1.52676 94.2686 1.76757 93.6872 2.19623 93.2585C2.19626 93.2584 2.19629 93.2584 2.19633 93.2584L44.9017 50.5606L45.9626 49.4998L44.9017 48.4391L2.19623 5.74122L2.19498 5.73998C1.98254 5.52807 1.81398 5.27633 1.69898 4.99918C1.58398 4.72203 1.52478 4.42492 1.52478 4.12485C1.52478 3.82478 1.58398 3.52767 1.69898 3.25052C1.81398 2.97337 1.98254 2.72163 2.19498 2.50972Z" fill="#FFD600" stroke="#FFD600" stroke-width="3"/>
</svg>
